<?xml version="1.0" encoding="UTF-8"?>
<!DOCTYPE svg PUBLIC "-//W3C//DTD SVG 1.1//EN" "http://www.w3.org/Graphics/SVG/1.1/DTD/svg11.dtd">
<!-- Creator: CorelDRAW X7 -->
<svg xmlns="http://www.w3.org/2000/svg" xml:space="preserve" width="1200px" height="232px" version="1.1" style="shape-rendering:geometricPrecision; text-rendering:geometricPrecision; image-rendering:optimizeQuality; fill-rule:evenodd; clip-rule:evenodd"
viewBox="0 0 1200 232"
 xmlns:xlink="http://www.w3.org/1999/xlink">
 <defs>
  <style type="text/css">
   <![CDATA[
    .fil2 {fill:#4B4B4D}
    .fil1 {fill:url(#id0);fill-rule:nonzero}
    .fil0 {fill:url(#id1);fill-rule:nonzero}
   ]]>
  </style>
  <linearGradient id="id0" gradientUnits="userSpaceOnUse" x1="-0" y1="116.027" x2="180.597" y2="116.027">
   <stop offset="0" style="stop-opacity:1; stop-color:#00AFEF"/>
   <stop offset="1" style="stop-opacity:1; stop-color:#0991CC"/>
  </linearGradient>
  <linearGradient id="id1" gradientUnits="userSpaceOnUse" xlink:href="#id0" x1="-0" y1="116.028" x2="231.154" y2="116.028">
  </linearGradient>
 </defs>
 <g id="Camada_x0020_1">
  <metadata id="CorelCorpID_0Corel-Layer"/>
  <g id="_1478006002800">
   <g>
    <path class="fil0" d="M15 202l151 0c9,0 18,-4 25,-10 6,-7 10,-16 10,-25l0 0c0,-10 -4,-19 -10,-26 -7,-6 -16,-10 -25,-10l-38 0 -63 0c-8,0 -14,-7 -14,-15 0,-8 6,-15 14,-15l63 0 38 0c9,0 18,-4 25,-10 6,-7 10,-16 10,-26l0 0c0,-9 -4,-18 -10,-25 -7,-6 -16,-10 -25,-10l-151 0c-8,0 -15,-7 -15,-15 0,-8 7,-15 15,-15l151 0c18,0 34,7 46,19 12,12 19,28 19,46l0 0c0,18 -7,35 -19,47 -2,1 -3,3 -5,4 2,1 3,3 5,4 12,12 19,29 19,47l0 0c0,18 -7,34 -19,46 -12,12 -28,19 -46,19l-151 0c-8,0 -15,-7 -15,-15 0,-8 7,-15 15,-15z"/>
    <path class="fil1" d="M166 51l0 0 0 0 0 0 0 0 1 0 0 0c0,0 0,0 0,0l0 0 1 0 0 0 0 0 0 0 0 0 0 0 1 0 0 0 0 0 0 0 1 0 0 0 0 0 0 0 0 0 1 0 0 1 0 0 1 0 0 0 0 0 0 0 0 0 1 0 0 1 0 0 1 0 0 0 0 0 0 0 1 1 0 0 0 0 0 0 0 0 1 0 0 1 0 0 0 0 1 0 0 1 0 0 0 0 1 1 0 0 0 0 0 0 0 1 1 0 0 0 0 0 0 0 0 1 0 0 0 0 0 1 0 0 1 0 0 0 0 0 0 1 0 0 0 0 0 0 0 1 0 0 0 0 0 0 0 0 0 1 0 0 0 0 0 0 0 1 0 0 1 0 0 0 0 0 0 0 0 1 0 0 0 0 0 0 0 0 0 0 0 1 0 0 0 0 0 0 0 1 0 0c0,0 0,0 0,0l0 0 -1 0 0 0c0,1 0,1 0,1l0 0 0 0 0 1 0 0 0 0 0 1 0 0 0 0 0 0 0 0 0 1 0 0 -1 0 0 1 0 0 0 0 0 0 0 0 0 1 0 0 -1 0 0 1 0 0 0 0 0 0 0 0 -1 1 0 0 0 0 0 0 0 0 -1 1 0 0 0 0 0 1 -1 0 0 0 0 0 0 0 0 0 -1 1 0 0 0 0 0 0 -1 0 0 0 0 1 -1 0 0 0 0 0 0 0 0 0 -1 0 0 0 0 0 -1 1 0 0 0 0 0 0 0 0 -1 0 0 0 0 0 0 0 -1 0 0 0c0,0 0,0 0,0l0 0 -1 0 0 0 0 0 0 0 -1 0 0 0 0 0 0 0 0 0 0 0 -101 0c-9,0 -18,4 -25,11 -6,6 -10,15 -10,25l0 0c0,10 4,19 10,25 7,7 16,11 25,11l101 0c8,0 15,6 15,15 0,8 -7,14 -15,14l-101 0c-18,0 -34,-7 -46,-19 -12,-12 -19,-28 -19,-46l0 0c0,-18 7,-34 19,-46 12,-12 28,-19 46,-19l101 0 0 0z"/>
   </g>
   <path class="fil2" d="M952 48c38,0 69,31 69,68 0,38 -31,68 -69,68 -39,0 -70,-30 -70,-68 0,-37 31,-68 70,-68zm-630 125l21 0c14,0 24,-2 30,-6 6,-4 9,-11 9,-20 0,-8 -3,-15 -9,-20 -7,-5 -15,-8 -26,-8l-36 0c-2,0 -4,-2 -4,-4 0,-2 2,-4 4,-4l32 0c9,0 15,-3 21,-8 5,-4 8,-11 8,-19 0,-8 -3,-14 -9,-18 -5,-5 -12,-7 -22,-7l-19 0 -11 0 0 0c-2,0 -4,-2 -4,-5 0,-2 2,-4 4,-4l31 0c12,0 22,3 30,9 7,6 10,14 10,25 0,6 -1,12 -4,17 -3,5 -8,9 -14,12 10,2 17,7 22,13 5,5 8,13 8,22 0,6 -1,11 -4,16 -3,4 -7,8 -12,11 -3,3 -8,4 -13,5 -5,1 -12,2 -23,2l-31 0c-2,0 -4,-2 -4,-4 0,-3 2,-5 4,-5l11 0zm770 4c0,3 -2,5 -5,5 -3,0 -5,-2 -5,-5l0 -119 0 0 0 0c0,-4 3,-8 7,-8 3,0 5,1 6,3l0 0 0 0 94 112 0 -110c0,-2 3,-5 6,-5 3,0 5,3 5,5l0 0 0 120c0,4 -3,7 -7,7l0 0c-2,0 -3,-1 -5,-2l0 0 -96 -115 0 112 0 0zm-263 -4c3,0 5,2 5,4 0,3 -2,5 -5,5l0 0 -105 0 0 0c-3,0 -5,-2 -5,-5 0,-1 0,-2 1,-2l97 -116 -89 0 0 0c-3,0 -5,-2 -5,-5 0,-2 2,-4 5,-4l100 0c2,0 4,2 4,4 0,1 0,2 -1,3l-96 116 94 0zm-305 0c2,0 4,2 4,5 0,2 -2,4 -4,4l-69 0 0 -126c0,-3 2,-6 6,-6 3,0 5,3 5,6l0 0 0 117 58 0zm74 -46l0 0 -22 52c-1,2 -3,3 -5,3 -3,0 -5,-2 -5,-5 0,-1 0,-1 0,-2l54 -124 0 0c1,-1 2,-2 3,-2l0 0 0 0c1,0 2,1 3,2l54 124 0 0c0,1 0,1 0,2 0,3 -2,5 -5,5 -2,0 -4,-1 -5,-3l0 0 -47 -112 -25 60zm354 -70c31,0 57,27 57,59 0,33 -26,59 -57,59 -32,0 -58,-26 -58,-59 0,-32 26,-59 58,-59z"/>
  </g>
 </g>
</svg>
