<?xml version="1.0" encoding="utf-8"?>
<!-- Generator: Adobe Illustrator 26.0.3, SVG Export Plug-In . SVG Version: 6.00 Build 0)  -->
<svg version="1.1" xmlns="http://www.w3.org/2000/svg" xmlns:xlink="http://www.w3.org/1999/xlink" x="0px" y="0px"
	 viewBox="0 0 1920 1080" style="enable-background:new 0 0 1920 1080;" xml:space="preserve">
<style type="text/css">
	.st0{fill:#010010;}
	.st1{fill:#1EC8FC;}
	.st2{opacity:0.7;fill:#010010;}
	.st3{opacity:0.4;fill:#010010;}
	.st4{opacity:0.5;fill:#010010;}
	.st5{fill:#FFFFFF;}
	.st6{opacity:0.7;fill:#1EC8FC;}
	.st7{opacity:0.4;fill:#1EC8FC;}
	.st8{opacity:0.5;fill:#1EC8FC;}
	.st9{opacity:0.7;}
	.st10{opacity:0.4;}
	.st11{opacity:0.5;}
</style>
<g id="Layer_2">
</g>
<g id="Layer_1">
	<g>
		<g>
			<path class="st0" d="M498.14,378.99l0.01,0.01l0.02-0.01C498.16,378.99,498.15,378.99,498.14,378.99z"/>
			<path class="st0" d="M498.2,701.01l-0.05-0.04l-0.05,0.04C498.14,701.01,498.17,701.01,498.2,701.01z"/>
			<path class="st2" d="M698.75,601.09c-13.12-8.1-31.81-1.63-41.74,14.45c-9.93,16.08-7.34,35.68,5.78,43.79
				c13.12,8.1,31.81,1.63,41.74-14.45C714.46,628.79,711.87,609.19,698.75,601.09z"/>
			<path class="st2" d="M610.51,696.33c-11.54-9.77-30.62-6.21-42.63,7.96c-12.01,14.17-12.38,33.58-0.85,43.36
				c11.54,9.78,30.62,6.21,42.63-7.96C621.67,725.52,622.05,706.11,610.51,696.33z"/>
			<path class="st3" d="M576.15,776.73c-9.81,4.66-15.6,12.97-12.94,18.58s12.77,6.37,22.57,1.72c9.81-4.66,15.6-12.97,12.94-18.58
				S585.96,772.07,576.15,776.73z"/>
			<path class="st3" d="M497.15,776.84c-12.21,0-22.11,6.12-22.11,13.67c0,7.55,9.9,13.67,22.11,13.67
				c12.21,0,22.11-6.12,22.11-13.67C519.26,782.96,509.36,776.84,497.15,776.84z"/>
			<path class="st4" d="M686.79,686.67c-8.76-7.02-23.95-2.61-33.93,9.85c-9.98,12.46-10.97,28.24-2.21,35.26s23.95,2.61,33.93-9.85
				C694.56,709.47,695.55,693.69,686.79,686.67z"/>
			<path class="st3" d="M751.33,602.78c-5.99-1.87-13.46,5.01-16.69,15.36c-3.23,10.35-0.99,20.25,5,22.12
				c5.99,1.87,13.46-5.01,16.69-15.36C759.55,614.55,757.32,604.65,751.33,602.78z"/>
			<path class="st0" d="M497.15,506.37c-18.58,0-33.63,15.06-33.63,33.63c0,18.58,15.06,33.63,33.63,33.63
				c18.58,0,33.63-15.06,33.63-33.63C530.78,521.43,515.73,506.37,497.15,506.37z"/>
			<path class="st2" d="M687.15,506.37c-15.02,0-27.2,15.06-27.2,33.63c0,18.58,12.18,33.63,27.2,33.63s27.2-15.06,27.2-33.63
				C714.35,521.43,702.17,506.37,687.15,506.37z"/>
			<path class="st3" d="M746.59,516.66c-8.53,0-15.44,10.45-15.44,23.34c0,12.89,6.91,23.34,15.44,23.34s15.44-10.45,15.44-23.34
				C762.04,527.11,755.12,516.66,746.59,516.66z"/>
			<path class="st2" d="M331.11,659.32c13.12-8.1,15.71-27.71,5.78-43.79c-9.93-16.08-28.62-22.55-41.74-14.45
				c-13.12,8.1-15.71,27.71-5.78,43.79C299.31,660.95,317.99,667.42,331.11,659.32z"/>
			<path class="st2" d="M383.4,696.33c-11.54,9.77-11.16,29.19,0.85,43.36c12.01,14.17,31.09,17.74,42.63,7.96
				c11.54-9.77,11.16-29.19-0.85-43.36C414.02,690.12,394.94,686.56,383.4,696.33z"/>
			<path class="st3" d="M417.75,776.73c-9.8-4.66-19.91-3.89-22.57,1.72c-2.66,5.6,3.13,13.92,12.94,18.58
				c9.81,4.66,19.91,3.89,22.57-1.72S427.56,781.38,417.75,776.73z"/>
			<path class="st4" d="M307.12,686.67c-8.76,7.02-7.77,22.8,2.21,35.26c9.98,12.46,25.17,16.87,33.93,9.85
				c8.76-7.02,7.77-22.8-2.21-35.26C331.07,684.06,315.88,679.65,307.12,686.67z"/>
			<path class="st3" d="M242.58,602.78c-5.99,1.87-8.23,11.77-5,22.12c3.23,10.35,10.7,17.22,16.69,15.36
				c5.99-1.87,8.23-11.77,5-22.12C256.04,607.79,248.57,600.91,242.58,602.78z"/>
			<path class="st2" d="M306.75,573.63c15.02,0,27.2-15.06,27.2-33.63c0-18.57-12.18-33.63-27.2-33.63
				c-15.02,0-27.2,15.06-27.2,33.63C279.56,558.57,291.73,573.63,306.75,573.63z"/>
			<path class="st3" d="M247.31,516.66c-8.53,0-15.44,10.45-15.44,23.34c0,12.89,6.91,23.34,15.44,23.34
				c8.53,0,15.44-10.45,15.44-23.34C262.76,527.11,255.84,516.66,247.31,516.66z"/>
			<path class="st2" d="M295.16,478.91c13.12,8.1,31.81,1.63,41.74-14.45c9.93-16.08,7.34-35.68-5.78-43.79
				c-13.12-8.1-31.81-1.63-41.74,14.45C279.45,451.21,282.04,470.81,295.16,478.91z"/>
			<path class="st2" d="M383.4,383.67c11.54,9.77,30.62,6.21,42.63-7.96c12.01-14.17,12.39-33.58,0.85-43.36
				c-11.54-9.77-30.62-6.21-42.63,7.96C372.24,354.48,371.86,373.89,383.4,383.67z"/>
			<path class="st3" d="M417.75,303.27c9.81-4.66,15.6-12.97,12.94-18.58s-12.77-6.37-22.57-1.72c-9.81,4.66-15.6,12.97-12.94,18.58
				C397.84,307.16,407.95,307.93,417.75,303.27z"/>
			<path class="st4" d="M343.25,348.22c-8.76-7.02-23.95-2.6-33.93,9.85c-9.98,12.46-10.97,28.24-2.21,35.26
				c8.76,7.02,23.95,2.61,33.93-9.85C351.02,371.02,352.01,355.24,343.25,348.22z"/>
			<path class="st3" d="M242.58,477.22c5.99,1.87,13.46-5.01,16.69-15.36c3.23-10.35,0.99-20.25-5-22.12
				c-5.99-1.87-13.46,5.01-16.69,15.36C234.35,465.45,236.59,475.35,242.58,477.22z"/>
			<path class="st0" d="M593.64,408.38L593.64,408.38c-0.02,0-0.05-0.01-0.08,0c-0.01,0-0.02,0-0.03,0c-0.02,0-0.03,0-0.05,0
				c-16.4,0.76-34.51-7.17-47.5-22.5c-9.04-10.67-14.16-23.26-15.25-35.26l-0.02,0.02c-0.67-14.63-15.42-26.34-33.57-26.34
				c-17.5,0-31.87,10.88-33.47,24.79c-0.76,12.51-5.88,25.64-15.33,36.8c-11.89,14.04-27.99,21.97-43.21,22.6l0.02,0.02
				c-0.79-0.06-1.58-0.12-2.39-0.12c-18.58,0-33.63,15.06-33.63,33.63c0,9,3.55,17.15,9.31,23.19h-0.01
				c0.12,0.11,0.22,0.24,0.33,0.36c0.09,0.09,0.17,0.18,0.25,0.27c6.03,6.16,9.78,14.63,9.78,24c0,9.9-4.16,18.81-10.8,25.04l0.06,0
				c-6.94,6.16-11.34,15.12-11.34,25.13c0,9.83,4.24,18.64,10.96,24.79h-0.07c6.26,6.21,10.15,14.88,10.15,24.48
				c0,8.92-3.36,17.04-8.86,23.13h0c-6.05,6.08-9.79,14.46-9.79,23.71c0,18.57,15.06,33.63,33.63,33.63c0.02,0,0.05,0,0.07,0l0,0
				c15.88-0.1,32.94,7.7,45.43,22.45c9.27,10.95,14.36,23.79,15.27,36.08c0,0.03-0.01,0.05-0.01,0.08
				c0,15.12,15.06,27.37,33.63,27.37c18.29,0,33.14-11.89,33.59-26.69l0.01,0.01c0.79-12.46,6.05-25.74,15.46-36.85
				c12.46-14.71,29.77-22.57,45.62-22.51l-0.03-0.02c0.58,0.03,1.14,0.09,1.73,0.09c18.58,0,33.63-15.06,33.63-33.63
				c0-9.55-4-18.15-10.39-24.27h0.04c-5.7-6.16-9.28-14.66-9.28-23.82c0-9.16,3.58-17.59,9.28-23.76h-0.04
				c6.39-6.12,10.39-14.72,10.39-24.27c0-9.47-3.93-18.01-10.22-24.12c-6.16-6.34-9.98-15.13-9.98-24.86c0-9.38,3.7-18.12,9.48-24.4
				h-0.05c6.61-6.14,10.77-14.89,10.77-24.62C627.17,423.46,612.17,408.43,593.64,408.38z M570.05,515.95
				c-6.25,6.11-10.14,14.62-10.14,24.04c0,9.61,4.05,18.25,10.5,24.38h-0.04c5.7,6.17,9.2,14.49,9.2,23.65
				c0,9.15-3.54,17.58-9.24,23.74h0.04c-6.44,6.13-10.47,14.76-10.47,24.35c0,0.55,0.06,1.09,0.08,1.63l-0.03-0.03
				c0,34.97-27.7,63.26-61.81,63.26l0.05,0.04c-0.03,0-0.07,0-0.1,0l0.05-0.04c-34.11,0-61.75-28.34-61.75-63.31
				c0-0.52-0.01-1.04,0-1.55c0-10.79-5.1-20.36-12.99-26.52l0.04,0c-6.04-5.79-9.77-13.77-9.77-22.57c0-8.64,3.59-16.48,9.43-22.24
				h-0.05C429.76,558.63,434,549.82,434,540c0-8.78-3.39-16.75-8.9-22.74l0.05,0c-5.5-6.48-8.87-15.13-8.87-24.63
				c0-10.95,3.39-20.35,10.45-27.02h-0.02c5.92-6,9.59-14.21,9.67-23.29l0.02,0.02c0-34.96,27.65-63.34,61.75-63.34l-0.01-0.01
				c0.01,0,0.02,0,0.03,0l-0.02,0.01c34.1,0,61.74,28.05,61.76,63c0,0,0,0,0,0c0,9.97,4.36,18.9,11.25,25.06h-0.06
				c5.54,6.24,8.93,14.77,8.93,23.93c0,9.75-3.83,18.62-10.01,24.96H570.05z"/>
			<path class="st2" d="M662.79,420.68c-13.12,8.1-15.71,27.71-5.78,43.79c9.93,16.08,28.62,22.55,41.74,14.45
				c13.12-8.1,15.71-27.71,5.78-43.79C694.6,419.05,675.91,412.58,662.79,420.68z"/>
			<path class="st2" d="M610.51,383.67c11.54-9.77,11.16-29.19-0.85-43.36c-12.01-14.17-31.09-17.74-42.63-7.96
				c-11.54,9.77-11.16,29.19,0.85,43.36S598.97,393.44,610.51,383.67z"/>
			<path class="st3" d="M576.15,303.27c9.81,4.66,19.91,3.89,22.57-1.72s-3.13-13.92-12.94-18.58c-9.81-4.66-19.91-3.89-22.57,1.72
				S566.35,298.62,576.15,303.27z"/>
			<path class="st3" d="M497.15,303.16c12.21,0,22.11-6.12,22.11-13.67c0-7.55-9.9-13.67-22.11-13.67
				c-12.21,0-22.11,6.12-22.11,13.67C475.04,297.04,484.94,303.16,497.15,303.16z"/>
			<path class="st4" d="M686.79,393.33c8.76-7.02,7.77-22.8-2.21-35.26s-25.17-16.87-33.93-9.85s-7.77,22.8,2.21,35.26
				C662.84,395.94,678.03,400.35,686.79,393.33z"/>
			<path class="st3" d="M751.33,477.22c5.99-1.87,8.23-11.77,5-22.12c-3.23-10.35-10.7-17.22-16.69-15.36
				c-5.99,1.87-8.23,11.77-5,22.12C737.87,472.21,745.34,479.09,751.33,477.22z"/>
			<g>
				<g>
					<path class="st1" d="M980.49,455.08c-14.26-8.35-31.07-12.58-49.97-12.58c-18.9,0-35.76,4.23-50.09,12.58
						c-14.38,8.37-25.64,20.09-33.46,34.83c-7.75,14.6-11.86,31.53-12.21,50.52c0.35,18.79,4.46,35.72,12.21,50.32
						c7.82,14.75,19.08,26.47,33.46,34.83c14.33,8.35,31.18,12.58,50.09,12.58c18.91,0,35.72-4.23,49.97-12.58
						c14.29-8.37,25.54-20.13,33.45-34.94c7.84-14.68,11.99-31.56,12.35-50.41c-0.36-18.63-4.51-35.52-12.35-50.2
						C1006.03,475.21,994.78,463.45,980.49,455.08z M992.1,540.32c0,12.48-2.5,23.81-7.41,33.65c-4.84,9.68-11.96,17.43-21.17,23.05
						c-9.23,5.63-20.33,8.49-32.99,8.49c-12.83,0-23.97-2.85-33.11-8.48c-9.14-5.62-16.22-13.38-21.05-23.06
						c-4.92-9.84-7.42-21.16-7.42-33.65c0-12.48,2.5-23.81,7.42-33.65c4.84-9.68,11.92-17.44,21.05-23.06
						c9.14-5.62,20.28-8.47,33.11-8.47c12.67,0,23.77,2.85,32.99,8.48c9.21,5.62,16.33,13.38,21.17,23.05
						C989.6,516.53,992.1,527.85,992.1,540.32z"/>
				</g>
			</g>
			<g>
				<g>
					<path class="st1" d="M1197.52,533.94c6.34-9.36,9.55-19.87,9.55-31.21c0-17.23-6.55-31.36-19.47-42.01
						c-12.61-10.38-31.44-15.64-55.95-15.64h-60.01c-4.7,0-8.89,1.77-12.11,5.12c-3.18,3.29-4.85,7.48-4.85,12.1v157.6
						c0,4.67,1.7,8.84,4.93,12.05c3.22,3.22,7.38,4.92,12.04,4.92c4.61,0,8.8-1.68,12.1-4.85c3.35-3.22,5.13-7.41,5.13-12.12v-54.37
						h47.93c10.32,0,17.98,2.38,22.75,7.08c5.12,5.05,8.26,10.56,9.59,16.86c1.46,6.89,2.2,14.53,2.2,22.71v7.72
						c0,4.9,1.61,9,4.79,12.17c3.18,3.19,7.36,4.8,12.43,4.8c4.65,0,8.81-1.7,12.04-4.92c3.22-3.22,4.93-7.38,4.93-12.05v-11.84
						c0-12.26-2.41-24.9-7.17-37.56c-3.56-9.46-9.28-16.61-17.09-21.37C1187.9,545.19,1193.34,540.11,1197.52,533.94z
						 M1172.88,504.53c0,8.82-3.48,15.45-10.63,20.26c-7.72,5.2-18.54,7.84-32.15,7.84h-41.24v-54.66h39.95
						c16.77,0,28.57,2.42,35.06,7.19C1169.94,489.63,1172.88,495.96,1172.88,504.53z"/>
				</g>
			</g>
			<g>
				<path class="st1" d="M1255,443.78c-4.7,0-8.89,1.77-12.11,5.12c-3.18,3.3-4.86,7.48-4.86,12.1V619.9c0,4.67,1.7,8.83,4.93,12.05
					c3.22,3.22,7.38,4.92,12.04,4.92c4.61,0,8.8-1.68,12.1-4.85c3.35-3.22,5.13-7.41,5.13-12.12V461.01c0-4.66-1.75-8.87-5.05-12.17
					C1263.87,445.53,1259.66,443.78,1255,443.78z"/>
			</g>
			<g>
				<g>
					<path class="st1" d="M1446.35,455.08c-14.26-8.35-31.07-12.58-49.97-12.58s-35.75,4.23-50.09,12.58
						c-14.38,8.38-25.64,20.09-33.46,34.83c-7.75,14.59-11.86,31.52-12.22,50.52c0.36,18.8,4.47,35.73,12.22,50.32
						c7.82,14.74,19.08,26.46,33.46,34.83c14.33,8.35,31.18,12.58,50.09,12.58s35.72-4.23,49.97-12.58
						c14.28-8.37,25.53-20.12,33.45-34.94c7.83-14.68,11.99-31.56,12.35-50.41c-0.36-18.63-4.52-35.52-12.35-50.2
						C1471.89,475.21,1460.64,463.45,1446.35,455.08z M1457.96,540.32c0,12.48-2.5,23.81-7.42,33.65
						c-4.84,9.68-11.96,17.44-21.17,23.05v0c-9.23,5.63-20.33,8.49-32.99,8.49c-12.83,0-23.97-2.85-33.11-8.48
						c-9.13-5.62-16.22-13.38-21.06-23.06c-4.92-9.83-7.41-21.15-7.41-33.65c0-12.49,2.5-23.81,7.41-33.65
						c4.84-9.68,11.93-17.44,21.06-23.06c9.14-5.62,20.28-8.47,33.11-8.47c12.67,0,23.77,2.85,32.99,8.48
						c9.2,5.62,16.33,13.37,21.17,23.05C1455.47,516.52,1457.96,527.85,1457.96,540.32z"/>
				</g>
			</g>
			<g>
				<path class="st1" d="M1683.07,448.83c-3.31-3.3-7.52-5.05-12.17-5.05c-4.7,0-8.9,1.77-12.11,5.12c-3.18,3.3-4.86,7.48-4.86,12.1
					v121.85l-89.5-129.25c-5-6.52-11.2-9.83-18.43-9.83h-3.35c-6.12,0-11.41,2.24-15.7,6.65c-4.26,4.37-6.42,9.66-6.42,15.73V619.9
					c0,4.67,1.7,8.83,4.93,12.05c3.22,3.22,7.38,4.92,12.04,4.92c4.62,0,8.8-1.68,12.1-4.85c3.35-3.22,5.13-7.41,5.13-12.12V497.79
					l89.98,129.97c2.01,2.69,4.6,4.88,7.68,6.53c3.18,1.71,6.63,2.57,10.27,2.57h3.09c6.07,0,11.36-2.16,15.73-6.42
					c4.41-4.3,6.65-9.58,6.65-15.7V461.01C1688.13,456.35,1686.38,452.14,1683.07,448.83z"/>
			</g>
		</g>
	</g>
</g>
</svg>
